<svg width="99" height="65" viewBox="0 0 99 65" fill="none" xmlns="http://www.w3.org/2000/svg">
<path d="M50.6852 14.7058L50.6932 14.7178L50.7016 14.7296C50.93 15.0524 51.1416 15.365 51.362 15.6907C51.5165 15.919 51.6754 16.1536 51.8474 16.4028C52.2136 16.9755 52.7155 17.4492 53.3086 17.7816C53.9082 18.1177 54.5821 18.299 55.2693 18.309C55.9565 18.319 56.6354 18.1574 57.2445 17.839C57.8431 17.526 58.3558 17.0711 58.7377 16.5143C59.1993 15.9166 59.62 15.2675 59.9928 14.6877C60.3181 14.2133 60.7331 13.8072 61.2145 13.4922C61.6995 13.1749 62.2422 12.9563 62.8117 12.8489C63.3812 12.7416 63.9663 12.7476 64.5335 12.8666C65.1007 12.9856 65.6389 13.2153 66.1172 13.5425L66.1232 13.5465L66.1292 13.5505C66.6063 13.8668 67.0147 14.2759 67.3303 14.7534C67.6459 15.2309 67.8622 15.7671 67.9661 16.3299C68.0701 16.8928 68.0597 17.4708 67.9355 18.0296C67.8113 18.5883 67.576 19.1163 67.2434 19.5822L67.2343 19.5948L67.2257 19.6077C64.4937 23.6972 61.742 27.7697 58.9704 31.8253L58.9648 31.8334L58.9594 31.8417C58.5747 32.4291 58.0527 32.9141 57.4385 33.2545C56.8243 33.595 56.1365 33.7807 55.4344 33.7957C54.7323 33.8106 54.0372 33.6543 53.409 33.3403C52.7809 33.0263 52.2388 32.564 51.8294 31.9934L51.8295 31.9933L51.823 31.9845C50.6559 30.3946 49.5675 28.7522 48.4709 27.0974C47.9282 26.2784 47.3835 25.4563 46.8262 24.6361L46.8262 24.6361L46.824 24.6329C46.5896 24.2907 46.3551 23.9494 46.121 23.6087C45.1884 22.2511 44.2631 20.9042 43.3799 19.5559L43.3714 19.5429L43.3625 19.5301C42.9085 18.882 42.6521 18.1162 42.6242 17.3254C42.5964 16.5346 42.7983 15.7526 43.2055 15.0742L43.2215 15.0475L43.2359 15.0199C43.5913 14.3345 44.1265 13.7587 44.7841 13.3542C45.4409 12.9502 46.1952 12.7323 46.9663 12.7237C47.7013 12.7204 48.4257 12.8995 49.0745 13.2451C49.7241 13.591 50.2776 14.093 50.6852 14.7058Z" stroke="white" stroke-width="2"/>
<path d="M26.0019 17.2481L26.0019 17.2481L26.0016 17.2364C25.9718 16.2919 26.2487 15.3631 26.7908 14.5891C27.3329 13.8151 28.1111 13.2374 29.0089 12.9425C29.9067 12.6477 30.8759 12.6515 31.7714 12.9534C32.6668 13.2552 33.4405 13.839 33.9765 14.6173L33.9787 14.6205C35.2273 16.4183 36.4496 18.2318 37.6769 20.0529C38.2482 20.9005 38.8205 21.7498 39.3972 22.5999C39.6281 22.9422 39.8912 23.3024 40.1682 23.6816C40.8889 24.6682 41.7038 25.7838 42.2898 27.0481C43.0727 28.7371 43.2861 30.3815 42.2607 31.9192C41.8449 32.5149 41.2874 32.9979 40.6385 33.3247C39.987 33.6529 39.2639 33.8133 38.5348 33.7913C37.8056 33.7693 37.0935 33.5657 36.463 33.1989C35.8324 32.8321 35.3034 32.3138 34.9238 31.6908L34.9169 31.6794L34.9096 31.6682C33.1279 28.9124 31.267 26.1994 29.4156 23.5003C28.6123 22.3291 27.8108 21.1606 27.0183 19.9924L26.9963 19.9599L26.9718 19.9293C26.3621 19.1667 26.0212 18.2243 26.0019 17.2481Z" stroke="white" stroke-width="2"/>
<!-- <path d="M27.2708 5.89088C27.2708 8.17553 25.4187 10.0276 23.134 10.0276C20.8494 10.0276 18.9973 8.17553 18.9973 5.89088C18.9973 3.60623 20.8494 1.75415 23.134 1.75415C25.4187 1.75415 27.2708 3.60623 27.2708 5.89088Z" stroke="white" stroke-width="2"/> -->
<path d="M20.568 52.6764C20.5684 51.8589 20.7392 51.0498 21.0702 50.2967C21.4012 49.5436 21.8858 48.8618 22.4954 48.2914C23.1051 47.721 23.8274 47.2735 24.6198 46.9754C25.4123 46.6773 26.2588 46.5345 27.1096 46.5555C28.0668 46.5345 29.0151 46.7347 29.8749 47.1392C30.7347 47.5438 31.4807 48.1408 32.0502 48.88C32.234 49.1297 32.3353 49.4269 32.3408 49.7327C32.3394 50.1096 32.1833 50.4709 31.9062 50.7379C31.6292 51.0049 31.2537 51.1562 30.8613 51.1589C30.6432 51.1694 30.4258 51.1287 30.2278 51.0402C30.0298 50.9518 29.8573 50.8183 29.7252 50.6513C29.4185 50.2814 29.0286 49.9829 28.5849 49.7781C28.1411 49.5733 27.6548 49.4676 27.1625 49.4688C26.7284 49.4626 26.2977 49.5422 25.897 49.7025C25.4963 49.8628 25.1341 50.1004 24.8329 50.4007C24.5317 50.7009 24.2979 51.0574 24.146 51.448C23.9941 51.8386 23.9273 52.2549 23.9498 52.6713C23.9498 54.5644 25.2813 55.8942 27.1625 55.8942C27.6538 55.887 28.1376 55.777 28.5802 55.5719C29.0228 55.3667 29.4135 55.0715 29.7252 54.7065C29.8597 54.5421 30.0326 54.4104 30.23 54.3223C30.4274 54.2341 30.6437 54.1918 30.8613 54.199C31.2537 54.2017 31.6292 54.353 31.9062 54.62C32.1833 54.887 32.3394 55.2482 32.3408 55.6252C32.3413 55.9147 32.247 56.197 32.0713 56.4322C31.523 57.2019 30.78 57.8251 29.9121 58.2433C29.0442 58.6615 28.0798 58.8608 27.1096 58.8227C26.2579 58.8389 25.4114 58.6919 24.6195 58.3905C23.8276 58.0891 23.1061 57.6391 22.4971 57.067C21.8882 56.4948 21.4039 55.8119 21.0727 55.0581C20.7415 54.3043 20.5699 53.4946 20.568 52.6764Z" fill="white"/>
<path d="M47.0567 52.6762C47.0082 54.315 46.2964 55.8711 45.0724 57.0139C43.8484 58.1566 42.2088 58.7959 40.5019 58.7959C38.7949 58.7959 37.1553 58.1566 35.9313 57.0139C34.7073 55.8711 33.9955 54.315 33.947 52.6762C33.9955 51.0373 34.7073 49.4812 35.9313 48.3384C37.1553 47.1957 38.7949 46.5564 40.5019 46.5564C42.2088 46.5564 43.8484 47.1957 45.0724 48.3384C46.2964 49.4812 47.0082 51.0373 47.0567 52.6762ZM37.3288 52.6762C37.3288 53.4838 37.6628 54.2584 38.2574 54.8295C38.852 55.4006 39.6584 55.7214 40.4992 55.7214C41.3401 55.7214 42.1465 55.4006 42.741 54.8295C43.3356 54.2584 43.6696 53.4838 43.6696 52.6762C43.6948 52.2616 43.6315 51.8464 43.4835 51.4562C43.3355 51.066 43.106 50.709 42.809 50.4071C42.5121 50.1052 42.154 49.8649 41.7568 49.7009C41.3595 49.5368 40.9316 49.4526 40.4992 49.4533C38.6445 49.4736 37.3288 50.8237 37.3288 52.6965V52.6762Z" fill="white"/>
<path d="M68.9272 42.5508C68.9388 42.9502 68.8259 43.3437 68.603 43.681C68.3801 44.0183 68.0574 44.2839 67.6762 44.4438C67.2951 44.6037 66.8729 44.6505 66.4638 44.5784C66.0547 44.5062 65.6774 44.3183 65.3803 44.0387C65.0832 43.7592 64.8798 43.4007 64.7962 43.0093C64.7127 42.618 64.7527 42.2116 64.9113 41.8423C65.0699 41.4729 65.3397 41.1575 65.6862 40.9365C66.0327 40.7155 66.44 40.599 66.8559 40.6019C67.3992 40.5978 67.9221 40.8005 68.3103 41.1658C68.6985 41.531 68.9203 42.0289 68.9272 42.5508ZM65.1756 57.2034V48.1693C65.1628 47.9514 65.1964 47.7333 65.2745 47.5284C65.3525 47.3234 65.4732 47.1359 65.6292 46.9773C65.7853 46.8188 65.9734 46.6924 66.1821 46.6061C66.3907 46.5198 66.6155 46.4752 66.8427 46.4752C67.0699 46.4752 67.2947 46.5198 67.5033 46.6061C67.712 46.6924 67.9001 46.8188 68.0561 46.9773C68.2122 47.1359 68.3329 47.3234 68.4109 47.5284C68.4889 47.7333 68.5226 47.9514 68.5098 48.1693V57.2034C68.5226 57.4213 68.4889 57.6394 68.4109 57.8443C68.3329 58.0493 68.2122 58.2368 68.0561 58.3953C67.9001 58.5539 67.712 58.6802 67.5033 58.7666C67.2947 58.8529 67.0699 58.8974 66.8427 58.8974C66.6155 58.8974 66.3907 58.8529 66.1821 58.7666C65.9734 58.6802 65.7853 58.5539 65.6292 58.3953C65.4732 58.2368 65.3525 58.0493 65.2745 57.8443C65.1964 57.6394 65.1628 57.4213 65.1756 57.2034Z" fill="white"/>
<path d="M19.0936 46.6264C18.8917 46.5329 18.6718 46.4807 18.4478 46.4732C18.2239 46.4656 18.0007 46.5029 17.7925 46.5826C17.5843 46.6623 17.3957 46.7827 17.2385 46.9361C17.0813 47.0896 16.9591 47.2728 16.8795 47.474L14.3379 52.9503L11.8544 47.6313C11.7692 47.3832 11.6202 47.1598 11.4211 46.9817L11.3472 46.9157C11.3072 46.8808 11.2649 46.8486 11.2204 46.8193C11.0516 46.6949 10.857 46.6066 10.6497 46.5604L10.4066 46.5249H10.1688L9.92049 46.5604C9.71357 46.6076 9.5192 46.6958 9.34981 46.8193L9.223 46.9157L9.14902 46.9817C8.95084 47.1595 8.80348 47.3832 8.72101 47.6313L6.22167 52.9757L3.65364 47.4689C3.57355 47.2681 3.45093 47.0855 3.29354 46.9326C3.13614 46.7797 2.94741 46.6598 2.73928 46.5806C2.53115 46.5014 2.30817 46.4646 2.08445 46.4725C1.86073 46.4804 1.64116 46.5328 1.43963 46.6264C1.22912 46.7185 1.03993 46.8501 0.883209 47.0136C0.72649 47.177 0.605415 47.3689 0.527117 47.5779C0.448818 47.787 0.414881 48.009 0.427308 48.2309C0.439734 48.4527 0.498273 48.6699 0.599472 48.8697L4.62589 57.4979C4.85924 57.8502 5.1563 58.1596 5.50304 58.4114C5.70726 58.503 5.92894 58.5531 6.15423 58.5586C6.37953 58.5641 6.60358 58.5249 6.81238 58.4435C7.02118 58.362 7.21024 58.2401 7.36772 58.0852C7.5252 57.9304 7.64773 57.746 7.72762 57.5435L10.2587 52.123L12.7897 57.5435C12.8696 57.746 12.9921 57.9304 13.1496 58.0852C13.3071 58.2401 13.4961 58.362 13.7049 58.4435C13.9137 58.5249 14.1378 58.5641 14.3631 58.5586C14.5884 58.5531 14.8101 58.503 15.0143 58.4114C15.2205 58.3183 15.4048 58.1856 15.5556 58.0215C15.7065 57.8574 15.8208 57.6654 15.8914 57.4573L19.8967 48.885C20.0017 48.6866 20.0641 48.47 20.0804 48.2481C20.0967 48.0262 20.0666 47.8033 19.9917 47.5928C19.9168 47.3822 19.7988 47.1882 19.6445 47.0222C19.4902 46.8563 19.3029 46.7217 19.0936 46.6264Z" fill="white"/>
<path d="M62.1426 43.3273C62.1554 43.1094 62.1217 42.8914 62.0437 42.6864C61.9657 42.4815 61.845 42.294 61.6889 42.1354C61.5329 41.9768 61.3447 41.8505 61.1361 41.7642C60.9274 41.6778 60.7027 41.6333 60.4755 41.6333C60.2483 41.6333 60.0235 41.6778 59.8149 41.7642C59.6062 41.8505 59.4181 41.9768 59.262 42.1354C59.106 42.294 58.9853 42.4815 58.9073 42.6864C58.8292 42.8914 58.7956 43.1094 58.8084 43.3273V47.3622C57.8152 46.8465 56.7035 46.5778 55.5745 46.5806C54.7212 46.557 53.8716 46.6981 53.076 46.9955C52.2804 47.2929 51.5551 47.7405 50.9428 48.3119C50.3305 48.8833 49.8438 49.5669 49.5114 50.3222C49.1791 51.0775 49.0078 51.8892 49.0078 52.7091C49.0078 53.5291 49.1791 54.3408 49.5114 55.0961C49.8438 55.8514 50.3305 56.535 50.9428 57.1064C51.5551 57.6778 52.2804 58.1254 53.076 58.4228C53.8716 58.7202 54.7212 58.8612 55.5745 58.8377C56.4287 58.8552 57.2779 58.7097 58.0731 58.4096C58.8683 58.1096 59.5936 57.661 60.2069 57.0898C60.8203 56.5186 61.3096 55.8361 61.6464 55.082C61.9832 54.3278 62.1608 53.517 62.169 52.6965C62.169 52.6254 62.169 52.5543 62.169 52.4833C62.1715 52.4427 62.1715 52.402 62.169 52.3615L62.1426 43.3273ZM55.5534 55.899C55.1235 55.9053 54.6969 55.8264 54.3002 55.6672C53.9034 55.508 53.5451 55.2719 53.2476 54.9738C52.9501 54.6757 52.7198 54.3218 52.571 53.9343C52.4223 53.5469 52.3583 53.1341 52.383 52.7218C52.383 50.849 53.7146 49.4939 55.5534 49.4939C56.4052 49.54 57.2064 49.8975 57.7925 50.493C58.3786 51.0885 58.7051 51.877 58.7051 52.6965C58.7051 53.5159 58.3786 54.3044 57.7925 54.8999C57.2064 55.4954 56.4052 55.8529 55.5534 55.899Z" fill="white"/>
<path d="M83.03 51.2753V57.2034C83.0409 57.4169 83.006 57.6303 82.9274 57.8303C82.8487 58.0303 82.7281 58.2126 82.573 58.3659C82.4178 58.5192 82.2315 58.6402 82.0256 58.7213C81.8197 58.8025 81.5986 58.8421 81.3761 58.8376C81.1546 58.8384 80.9353 58.7963 80.7311 58.7139C80.527 58.6315 80.3422 58.5104 80.1878 58.3579C80.0335 58.2053 79.9127 58.0245 79.8327 57.8261C79.7527 57.6278 79.7151 57.416 79.7222 57.2034V51.7017C79.7454 51.4051 79.7033 51.1072 79.5986 50.8274C79.4939 50.5476 79.329 50.2921 79.1146 50.0775C78.9003 49.863 78.6412 49.6943 78.3544 49.5823C78.0676 49.4704 77.7595 49.4178 77.4501 49.4279C77.1389 49.4191 76.8292 49.4723 76.5405 49.5841C76.2518 49.6958 75.9902 49.8638 75.7723 50.0773C75.5545 50.2909 75.3849 50.5454 75.2745 50.825C75.164 51.1045 75.1149 51.403 75.1304 51.7017V57.2034C75.1397 57.4165 75.1037 57.6293 75.0246 57.8286C74.9454 58.0279 74.8247 58.2096 74.6699 58.3626C74.515 58.5156 74.3293 58.6366 74.1242 58.7183C73.919 58.8 73.6986 58.8406 73.4765 58.8376C73.253 58.8411 73.0311 58.8011 72.8242 58.72C72.6173 58.6388 72.4296 58.5183 72.2726 58.3655C72.1156 58.2128 71.9924 58.031 71.9105 57.8313C71.8286 57.6316 71.7897 57.4179 71.7962 57.2034V48.1692C71.789 47.9575 71.8266 47.7467 71.9069 47.5494C71.9871 47.3521 72.1082 47.1726 72.2629 47.0216C72.4176 46.8707 72.6025 46.7515 72.8066 46.6714C73.0107 46.5912 73.2296 46.5517 73.4501 46.5552C73.814 46.5547 74.1671 46.6744 74.45 46.8944C74.7329 47.1143 74.9283 47.4211 75.0036 47.7632C75.9522 46.9643 77.1767 46.5336 78.4382 46.5552C81.2493 46.5552 83.03 48.4077 83.03 51.2753Z" fill="white"/>
<path d="M98.4013 53.1534C98.4013 52.2297 97.688 46.7686 91.4106 46.7483C87.9812 46.7483 85.4872 49.3317 85.4872 52.8895C85.4872 56.4473 87.9812 59.0307 91.4106 59.0307C92.088 59.0547 92.7632 58.9425 93.3929 58.7013C94.0226 58.4601 94.5928 58.0951 95.0671 57.6299L95.0301 59.2642C94.9429 60.006 94.5685 60.6892 93.9812 61.1781C93.3939 61.667 92.6366 61.9259 91.8597 61.9034C91.3679 61.8975 90.8833 61.7886 90.4398 61.5844C89.9962 61.3802 89.6044 61.0854 89.2917 60.7208C89.1584 60.5551 88.9856 60.4226 88.788 60.3342C88.5903 60.2459 88.3734 60.2044 88.1556 60.2133C87.7637 60.2146 87.3881 60.3648 87.111 60.631C86.8338 60.8972 86.6775 61.2579 86.6761 61.6344C86.6749 61.924 86.7692 62.2065 86.9456 62.4414C87.494 63.2113 88.2368 63.835 89.1046 64.254C89.9724 64.673 90.9368 64.8736 91.9073 64.8369C93.5216 64.8627 95.0866 64.3019 96.2888 63.2667C97.491 62.2314 98.2418 60.7983 98.3908 59.254L98.4013 53.1534ZM92.013 56.1276C90.1847 56.1276 88.8425 54.7471 88.8425 52.8996C88.8425 51.0522 90.153 49.6514 92.013 49.6514C93.8729 49.6514 95.0988 50.9558 95.0988 52.8793C95.0988 54.8029 93.8571 56.1276 92.013 56.1276Z" fill="white"/>
</svg>
